<svg xmlns="http://www.w3.org/2000/svg" width="256" height="256"><path fill-opacity=".016" d="M0 128.004v128.004l128.25-.254 128.25-.254.254-127.75L257.008 0H0v128.004m.485.496c0 70.4.119 99.053.265 63.672.146-35.38.146-92.98 0-128C.604 29.153.485 58.1.485 128.5" fill="#fff" fill-rule="evenodd"/><path fill-opacity=".346" d="M28.204 79.128c-2.363 1.17-5.37 3.534-6.682 5.254C19.157 87.483 0 149.276 0 153.804c0 1.145 1 2.783 2.223 3.639 1.978 1.386 14.089 1.556 110.25 1.551 72.296-.003 109.276-.352 111.804-1.054 4.314-1.198 10.164-5.958 12.228-9.949C238.586 143.967 256 85.016 256 81.996c0-1.428-.54-3.136-1.2-3.796-.919-.919-27.099-1.2-111.75-1.199l-110.55.001-4.296 2.126m168.275 16.201c-9.255 3.05-12.6 7.573-15.044 20.346-3.787 19.793.727 26.343 18.131 26.31 4.364-.009 8.528-.392 9.253-.852.827-.524 1.2-2.292 1-4.735l-.319-3.898-6.696.349c-6.16.321-6.911.135-9.375-2.329-2.315-2.315-2.601-3.246-2.102-6.85 1.311-9.482 3.011-15.099 5.245-17.333 2.06-2.06 3.286-2.337 10.342-2.337h8.006l1.2-4.006c.66-2.204.938-4.269.618-4.59-1.303-1.302-16.365-1.359-20.259-.075M46.48 96.25c-1.682 4.597-8.44 44.19-7.673 44.957.507.507 2.877.78 5.267.607l4.346-.314 1.183-6c.651-3.3 1.722-9.263 2.381-13.25.658-3.987 1.501-7.25 1.874-7.25.372 0 3.704 6.075 7.404 13.5l6.729 13.5h4.445c2.445 0 4.714-.434 5.041-.964.796-1.287 8.501-40.92 8.514-43.786.008-2.035-.47-2.25-4.991-2.25-2.75 0-5 .175-5 .39 0 .214-.9 4.764-2 10.11-1.1 5.346-2 11.246-2 13.11 0 1.865-.345 3.39-.767 3.39-.422 0-3.795-6.075-7.495-13.5L57.009 95h-5.036c-3.118 0-5.21.476-5.493 1.25m50.149-.459c-.994 1.609-8.661 43.684-8.185 44.924.373.973 4.392 1.285 16.549 1.285h16.057l.975-2.565c2.368-6.23 2.049-6.435-10.025-6.435-12.205 0-11.624.407-10.358-7.25l.62-3.75h9.762c10.457 0 10.976-.262 10.976-5.544 0-2.316-.254-2.389-9.25-2.668-9.198-.286-9.249-.302-9.006-2.788.708-7.253.289-7 11.575-7 11.418 0 12.681-.568 12.681-5.7V95h-15.941c-8.768 0-16.161.356-16.43.791m41 0c-1.022 1.653-8.654 43.702-8.164 44.979.355.925 1.99 1.246 5.273 1.035l4.759-.305 2.005-9.5 2.004-9.5 7.403-.297c4.072-.163 7.956-.085 8.631.174.946.363.814 2.496-.572 9.279-.99 4.844-1.586 9.153-1.325 9.576.78 1.262 9.033.868 10.095-.482.541-.687 2.655-10.25 4.7-21.25 2.044-11 3.955-21.013 4.248-22.25.502-2.126.226-2.25-4.995-2.25h-5.525l-1.068 4.977c-.587 2.737-1.356 6.787-1.71 9l-.644 4.023h-8.939c-8.042 0-8.888-.176-8.428-1.75.707-2.419 2.623-13.326 2.623-14.934 0-1.456-9.498-1.938-10.371-.525M6.714 168.188C4.18 172.334 1 178.104 1 178.557c0 1.16 2.856.262 3.362-1.057.786-2.049 4.318-1.894 5.513.242 1.701 3.039 2.396.547 1.495-5.366-.961-6.316-2.506-7.706-4.656-4.188m13.434 3.43c-.631 3.144-1.148 6.091-1.148 6.549 0 .458 2.25.833 5 .833s5-.45 5-1-1.575-1-3.5-1c-2.444 0-3.5-.452-3.5-1.5s1.056-1.5 3.5-1.5 3.5-.452 3.5-1.5c0-1-1-1.5-3-1.5-4.324 0-3.7-1.821.75-2.19 5.27-.436 4.678-2.25-.852-2.609l-4.602-.299-1.148 5.716m13.425-4.049c-1.897 1.898-.647 4.955 2.426 5.931 1.101.349 2.001 1.279 2.001 2.067 0 1.899-2.905 1.845-3.638-.067-.706-1.839-3.362-1.997-3.362-.2 0 2.08 2.19 3.7 5 3.7 5.613 0 6.757-5.016 1.75-7.674-2.666-1.415-2.912-1.797-1.37-2.124 1.034-.219 2.253.204 2.709.941.605.979 1.126 1.042 1.934.234s.665-1.546-.53-2.741c-2.066-2.066-4.893-2.093-6.92-.067m11.882.886C41.257 172.652 43.039 179 48.416 179c2.079 0 5.584-2.717 5.584-4.329 0-1.328-2.799-.638-3.362.829-.744 1.94-3.533 1.938-4.277-.002-1.139-2.968.532-6.498 3.075-6.498 1.318 0 2.574.53 2.79 1.177.222.668.936.841 1.648.401.968-.599.862-1.212-.464-2.677-2.331-2.576-5.012-2.389-7.955.554m12.719-.141C54.176 172.57 56.197 179 61.532 179c5.299 0 8.506-7.845 4.639-11.345-2.545-2.303-5.437-2.065-7.997.659m11.964 3.353c-.626 3.117-1.138 6.042-1.138 6.5 0 1.188 7.757 1.036 8.5-.167.362-.586-.693-1-2.552-1-3.115 0-3.159-.065-2.506-3.75.366-2.062.896-4.537 1.179-5.5.32-1.09-.025-1.75-.916-1.75-.937 0-1.821 1.952-2.567 5.667M81.1 168.25c-.467 1.238-1.18 4.216-1.583 6.619-.575 3.425-.446 4.274.597 3.926.732-.244 1.58-1.498 1.884-2.788.358-1.514 1.342-2.403 2.778-2.509 1.814-.134 2.224.359 2.224 2.669 0 1.558.397 2.833.881 2.833.954 0 3.119-7.596 3.119-10.943 0-2.883-1.833-2.57-2.589.443-.453 1.802-1.301 2.5-3.038 2.5-2.072 0-2.323-.351-1.784-2.5.797-3.175-1.304-3.386-2.489-.25m13.028 3.814c-1.833 3.335-3.026 6.372-2.649 6.748.376.377 1.26-.102 1.963-1.064 1.574-2.152 5.558-2.33 5.558-.248 0 .825.725 1.5 1.611 1.5 1.64 0 1.619-.951-.225-10.25-.842-4.246-2.619-3.305-6.258 3.314m15.966-1.067c-1.345 6.272-1.374 8.003-.133 8.003 1.909 0 4.176-12.096 2.383-12.709-.694-.237-1.593 1.642-2.25 4.706m6.401-3.747c-.543 1.537-2.437 9.968-2.471 11-.013.412.593.75 1.348.75.841 0 1.635-1.644 2.051-4.244l.679-4.245 1.9 4.245c2.197 4.906 3.701 5.398 4.576 1.494a278.26 278.26 0 0 1 1.42-5.933c.442-1.75.548-3.437.236-3.75-1.333-1.333-2.167-.31-2.943 3.612l-.826 4.178-1.884-4.178c-1.906-4.227-3.279-5.211-4.086-2.929m12.172-.583c-1.239 1.238-.678 2.333 1.194 2.333 1.692 0 1.768.41.832 4.499-.566 2.474-.759 4.769-.428 5.1 1.269 1.268 2.531-.75 3.181-5.087.535-3.565 1.083-4.512 2.615-4.512 1.067 0 1.939-.675 1.939-1.5 0-1.103-1.148-1.5-4.333-1.5-2.384 0-4.634.3-5 .667m10.505 4.409C137.351 178.965 137.368 179 143 179c2.75 0 5-.45 5-1s-1.575-1-3.5-1c-2.444 0-3.5-.452-3.5-1.5s1.056-1.5 3.5-1.5 3.5-.452 3.5-1.5c0-1-1-1.5-3-1.5-1.65 0-3-.45-3-1s1.575-1 3.5-1c2.444 0 3.5-.452 3.5-1.5 0-1.102-1.148-1.5-4.328-1.5h-4.329l-1.171 5.076m12.471-3.588c-.314.818-.87 3.743-1.236 6.5l-.665 5.012h4.129c2.271 0 4.129-.45 4.129-1s-1.157-1-2.572-1c-2.534 0-2.562-.081-1.885-5.5.436-3.484.318-5.5-.321-5.5-.554 0-1.265.67-1.579 1.488m9.418 4.609c-.66 3.354-.974 6.324-.697 6.6 1.183 1.183 2.453-.993 3.101-5.313.383-2.552.933-5.257 1.222-6.012.3-.781-.109-1.372-.95-1.372-1.01 0-1.856 1.928-2.676 6.097m7.394-3.642c-4.38 4.379-2.382 10.545 3.416 10.545 3.334 0 5.129-1.645 5.129-4.7 0-1.889-.536-2.3-3-2.3-1.65 0-3 .45-3 1s.713 1 1.583 1c.871 0 1.396.563 1.167 1.25-.229.688-1.279 1.25-2.333 1.25-1.524 0-1.917-.717-1.917-3.5 0-3.075.334-3.538 2.75-3.816 1.512-.174 2.75.163 2.75.75 0 .586.675 1.066 1.5 1.066 1.941 0 1.911-1.446-.071-3.429-2.259-2.259-5.153-1.938-7.974.884m11.693 3.163c-.631 3.144-1.148 6.091-1.148 6.549 0 .458 2.25.833 5 .833s5-.45 5-1-1.575-1-3.5-1c-2.444 0-3.5-.452-3.5-1.5s1.056-1.5 3.5-1.5 3.5-.452 3.5-1.5c0-1-1-1.5-3-1.5-4.324 0-3.7-1.821.75-2.19 5.27-.436 4.678-2.25-.852-2.609l-4.602-.299-1.148 5.716m11.935-.569c-1.317 6.139-1.36 7.951-.19 7.951 1.083 0 2.107-2.469 2.107-5.082 0-3.05 1.485-2.23 2.864 1.582 1.912 5.288 3.704 4.371 5.075-2.597.66-3.354.974-6.324.697-6.6-1.037-1.038-2.636.902-2.636 3.197 0 3.751-1.519 3.732-3.319-.043-.907-1.901-2.069-3.457-2.582-3.457-.513 0-1.421 2.272-2.016 5.049M205 167.5c0 .825.711 1.5 1.579 1.5 1.552 0 1.494 2.16-.221 8.25-.311 1.103.057 1.75.995 1.75.878 0 1.756-1.333 2.142-3.25 1.195-5.938 1.625-6.75 3.572-6.75 1.063 0 1.933-.675 1.933-1.5 0-1.133-1.222-1.5-5-1.5s-5 .367-5 1.5m11.139 2.25c-2.52 10.069-2.771 9.25 2.842 9.25 2.76 0 5.019-.45 5.019-1s-1.35-1-3-1c-4.177 0-4.027-2.772.173-3.187 4.251-.419 5.026-2.813.91-2.813-1.696 0-3.083-.45-3.083-1s1.575-1 3.5-1c2.444 0 3.5-.452 3.5-1.5 0-1.109-1.162-1.5-4.461-1.5-4.322 0-4.491.117-5.4 3.75m-156.472-.083c-1.287 1.286-.667 6.396.846 6.976 2.255.866 4.487-1.504 4.487-4.765 0-2.348-.429-2.878-2.333-2.878-1.284 0-2.634.3-3 .667M7.5 172c-.34.55-.141 1 .441 1S9 172.55 9 172s-.198-1-.441-1-.719.45-1.059 1" fill="#fff" fill-rule="evenodd"/><path fill-opacity=".232" d="M29.491 78.865c-8.228 3.738-9.186 5.742-19.833 41.49C3.726 140.27.15 153.897.536 155.114c.349 1.1 1.751 2.425 3.115 2.943 3.528 1.342 213.481 1.209 219.329-.138 4.802-1.107 10.139-4.644 12.544-8.315 1.572-2.399 20.452-64.925 20.467-67.783.005-.923-.698-2.385-1.562-3.25-1.41-1.409-12.857-1.569-111.25-1.549-103.926.021-109.889.117-113.688 1.843M195.5 95.159c-8.806 3.217-12.389 8.819-14.793 23.133-2.321 13.81-.016 19.778 8.874 22.979 5.252 1.891 17.434 1.792 19.787-.162.711-.589 1.035-2.68.799-5.151l-.396-4.16-5.136.612c-11.535 1.376-14.21-1.679-12.079-13.792 2.232-12.687 4.862-15.179 15.146-14.354l6.372.512 2.044-4.007c1.52-2.979 1.754-4.297.914-5.138-1.505-1.507-17.726-1.862-21.532-.472M42.636 113.704c-1.985 10.338-3.901 20.933-4.258 23.546l-.65 4.75h5.077c2.792 0 5.323-.398 5.623-.884.515-.833 4.062-18.681 4.793-24.116.261-1.944 1.886.5 7.308 11l6.971 13.5 5.218.301c4.746.274 5.265.093 5.734-2 .283-1.265 2.097-10.626 4.031-20.801 1.933-10.175 3.782-19.761 4.107-21.303l.592-2.802-5.833.302-5.834.303-1.72 9c-.946 4.95-1.737 10.725-1.757 12.833-.024 2.419-.46 3.693-1.181 3.453-.629-.21-3.892-5.985-7.25-12.834L57.5 95.5l-5.627-.296-5.627-.296-3.61 18.796M96 95.251c0 .138-1.8 9.7-4 21.249s-4 22.011-4 23.249c0 2.246.036 2.251 16.981 2.251h16.981l.602-2.398c.331-1.319.452-3.457.269-4.75-.323-2.283-.651-2.36-11.122-2.636l-10.789-.284.617-3.716c.339-2.044.786-4.262.993-4.929.253-.815 3.569-1.308 10.103-1.5l9.725-.287.815-3c1.384-5.095.711-5.5-9.144-5.5-8.703 0-9.031-.082-9.017-2.25.007-1.237.285-3.263.616-4.5.579-2.158 1.048-2.25 11.428-2.25 5.953 0 11.016-.338 11.252-.75.235-.412.732-2.437 1.104-4.5l.677-3.75h-17.046C103.67 95 96 95.113 96 95.251m41 0c0 .138-1.8 9.7-4 21.249s-4 22.011-4 23.249c0 2.032.482 2.251 4.965 2.251 5.969 0 6.344-.523 8.066-11.25l1.243-7.75h8.363c4.6 0 8.363.338 8.363.75s-.683 4.319-1.518 8.682c-.872 4.557-1.144 8.306-.64 8.81.484.484 3.075.739 5.76.568l4.88-.31 4.211-21.5c2.315-11.825 4.232-22.31 4.259-23.3.042-1.564-.706-1.76-5.702-1.5l-5.75.3-1.554 8.5-1.554 8.5-8.196.29c-9.404.334-8.953.998-6.818-10.032.718-3.708 1.077-6.97.797-7.25-.5-.5-11.175-.746-11.175-.257M34.75 167.08c-2.66 1.549-2.087 4.221 1.321 6.161 1.682.957 2.778 2.195 2.435 2.75-.973 1.574-4.308 1.186-5.318-.619-.568-1.016-1.155-1.234-1.559-.581C30.762 176.194 33.677 179 36 179c1.975 0 5-2.492 5-4.118 0-.536-1.347-1.742-2.994-2.679-1.646-.936-2.996-2.055-3-2.484-.011-1.345 3.352-2.146 3.767-.899.217.649 1.144 1.165 2.06 1.147 1.331-.027 1.191-.43-.694-2-2.686-2.238-2.984-2.287-5.389-.887m13.25-.386c-3.885 1.388-5.531 8.79-2.513 11.295 1.967 1.632 6.174.513 7.519-2.001 1.288-2.406.3-2.575-2.14-.367-2.688 2.433-5.057 1.034-4.68-2.763.429-4.316 3.044-5.865 5.755-3.411 1.798 1.627 2.059 1.657 2.059.243 0-1.325-2.994-3.909-4.184-3.611-.174.043-.991.32-1.816.615m12.079.571c-3.455 1.762-4.704 6.132-2.65 9.267 2.056 3.137 4.988 3.142 8.116.013 2.976-2.975 3.13-5.87.455-8.545-2.332-2.332-2.701-2.378-5.921-.735m109.955.012c-3.516 1.78-4.9 7.109-2.526 9.732 3.279 3.623 9.492 1.607 9.492-3.08 0-1.378-.697-1.929-2.441-1.929-1.343 0-2.719.45-3.059 1-.34.55.346 1 1.524 1 3.02 0 1.926 2.428-1.265 2.808-3.385.403-4.588-2.894-2.319-6.357 1.885-2.876 3.227-3.063 5.731-.796 1.671 1.512 1.829 1.515 1.829.035 0-.891-.87-2.085-1.934-2.655-2.354-1.259-2.034-1.275-5.032.242M4.552 172.472c-1.621 3.006-2.67 5.743-2.331 6.082.339.34 1.119-.321 1.733-1.468 1.434-2.68 5.064-2.734 5.756-.086 1.013 3.873 2.474 2.052 1.805-2.25-1.503-9.662-2.758-10.073-6.963-2.278m16.076-1.722c-.345 2.063-.905 4.762-1.244 6-.575 2.094-.302 2.25 3.94 2.25 2.507 0 4.836-.45 5.176-1 .368-.595-.823-1-2.941-1-2.892 0-3.559-.375-3.559-2 0-1.616.72-2.031 3.75-2.16 3.692-.158 3.7-.166.5-.563-2.369-.294-3.25-.913-3.25-2.28 0-1.432.888-1.969 3.75-2.269 3.534-.369 3.484-.401-.872-.56-4.603-.167-4.625-.152-5.25 3.582m50 0c-.345 2.063-.905 4.762-1.244 6-.568 2.069-.286 2.25 3.499 2.25 2.265 0 4.117-.45 4.117-1s-1.167-1-2.594-1c-2.537 0-2.579-.108-1.906-5 .805-5.851-.91-6.996-1.872-1.25m9.905.878c-.382 2.545-.931 5.245-1.22 6-.29.755-.018 1.372.605 1.372s1.402-1.35 1.732-3c.498-2.491 1.083-3 3.45-3 2.633 0 2.804.228 2.25 3-.702 3.51.324 4.012 1.535.75 1.488-4.007 2.24-9.75 1.277-9.75-.511 0-1.164.9-1.452 2-.36 1.379-1.364 2-3.233 2-2.218 0-2.615-.363-2.187-2 .324-1.238.03-2-.77-2-.771 0-1.573 1.868-1.987 4.628m13.546 1.043c-3.031 5.595-3.285 8.948-.348 4.579 1.922-2.859 4.679-2.887 5.94-.061 1.516 3.396 2.066.865 1.074-4.939-.563-3.294-1.4-5.25-2.246-5.25-.742 0-2.731 2.552-4.42 5.671m16.464-1.921c-.374 2.063-.923 4.762-1.22 6-.297 1.238-.078 2.25.486 2.25s1.513-2.272 2.108-5.049c1.313-6.124 1.337-6.951.194-6.951-.488 0-1.194 1.688-1.568 3.75m6.016-2.5c-1.565 5.176-2.219 9.842-1.447 10.319.938.58 1.241-.052 2.435-5.069l.714-3 1.907 4.25c1.049 2.338 2.263 4.25 2.698 4.25.435 0 1.318-2.284 1.962-5.076 1.411-6.112 1.441-6.924.26-6.924-.502 0-1.247 1.912-1.655 4.25l-.744 4.25-1.882-4.25c-1.871-4.224-3.525-5.392-4.248-3m13.279-.533c1.806.344 2.225.939 1.839 2.614-1.591 6.92-1.758 8.669-.827 8.669.554 0 1.516-2.447 2.137-5.438.901-4.34 1.572-5.524 3.321-5.864 1.206-.234-.283-.426-3.308-.426s-4.448.201-3.162.445m9.705 3.033c-.374 2.063-.923 4.762-1.22 6-.5 2.086-.204 2.25 4.069 2.25 2.534 0 4.608-.45 4.608-1s-1.533-1-3.406-1c-2.914 0-3.331-.289-2.884-2 .391-1.494 1.442-2.04 4.157-2.16l3.633-.16-3.25-.403c-2.369-.294-3.25-.913-3.25-2.28 0-1.432.888-1.969 3.75-2.269 3.521-.368 3.467-.402-.889-.56-4.613-.167-4.642-.147-5.318 3.582m11.54 1.299c-1.508 7.03-1.541 6.951 2.917 6.951 2.2 0 4-.45 4-1s-1.38-1-3.067-1c-2.443 0-2.967-.357-2.575-1.75 1.393-4.949 1.715-8.25.804-8.25-.548 0-1.484 2.272-2.079 5.049m10.545-1.299c-.345 2.063-.905 4.762-1.244 6-.661 2.41 1.043 3.186 1.929.878 1.216-3.171 1.868-10.628.928-10.628-.542 0-1.268 1.688-1.613 3.75m19 0c-.345 2.063-.905 4.762-1.244 6-.575 2.094-.302 2.25 3.94 2.25 2.507 0 4.836-.45 5.176-1 .368-.595-.823-1-2.941-1-2.892 0-3.559-.375-3.559-2 0-1.616.72-2.031 3.75-2.16 3.692-.158 3.7-.166.5-.563-2.369-.294-3.25-.913-3.25-2.28 0-1.432.888-1.969 3.75-2.269 3.534-.369 3.484-.401-.872-.56-4.603-.167-4.625-.152-5.25 3.582m11.915 0c-.374 2.063-.923 4.762-1.22 6-.31 1.294-.074 2.25.557 2.25.603 0 1.384-1.8 1.736-4 .352-2.2.92-3.995 1.262-3.99.342.006 1.413 1.892 2.38 4.192 1.058 2.518 2.11 3.807 2.644 3.24 1.076-1.142 3.153-10.72 2.473-11.4-.796-.796-2.343 2.292-2.36 4.708-.023 3.399-1.712 2.698-3.015-1.25-1.512-4.582-3.603-4.465-4.457.25m14.152-2.739c1.943.782 2.087 1.264 1.25 4.18-.52 1.813-.945 4.176-.945 5.252 0 3.29 1.754.413 2.685-4.404.683-3.531 1.378-4.604 3.339-5.15 1.707-.476.769-.701-3.024-.726-4.15-.027-4.961.181-3.305.848m9.992.361c-.289.755-.838 3.455-1.22 6l-.694 4.628h4.613c2.538 0 4.614-.45 4.614-1s-1.608-1-3.573-1c-2.864 0-3.507-.348-3.241-1.75.226-1.184 1.625-1.947 4.324-2.358 4.075-.621 3.931-.971-.51-1.241-4.18-.253-3.057-3.066 1.5-3.759l4-.608-4.643-.142c-3.117-.095-4.816.309-5.17 1.23m-157.345 2.229c-1.26 1.923-1.433 3.031-.664 4.25 1.559 2.472 4.555 1.989 6.235-1.006 1.242-2.213 1.27-2.92.166-4.25-1.908-2.298-3.788-1.969-5.737 1.006m-51.811.692c-.428.986-.497 2.074-.155 2.417 1.016 1.015 1.835-.411 1.367-2.382-.414-1.747-.468-1.748-1.212-.035m89.074.295c-.855 2.228-.787 2.412.895 2.412.825 0 1.5-.648 1.5-1.441 0-2.116-1.693-2.802-2.395-.971" fill="#fff" fill-rule="evenodd"/><path fill-opacity=".984" d="M31.5 78.207c-4.549 1.59-9.454 5.625-11.114 9.142-.818 1.733-5.712 17.326-10.877 34.651C.87 150.981.236 153.68 1.583 155.75L3.046 158h220.323l4.381-2.121c2.472-1.197 5.421-3.703 6.765-5.75 1.374-2.094 6.516-17.536 12.15-36.495l9.767-32.866-2.327-1.884c-2.248-1.821-5.978-1.881-110.966-1.805-73.013.053-109.623.423-111.639 1.128m168.295 15.824c-6.171 1.037-11.776 4.268-14.632 8.437-3.009 4.39-6.789 22.556-5.785 27.803.951 4.977 5.579 10.1 10.44 11.556 4.753 1.424 15.102 1.534 18.617.198 2.038-.775 2.562-1.648 2.55-4.25-.026-5.468-1.008-6.127-8.761-5.875-9.382.304-10.699-.955-9.834-9.4 1.587-15.496 4.859-19.122 16.225-17.983l6.116.613 1.634-4.085c2.24-5.597 2.15-5.873-2.115-6.547-7.394-1.167-9.818-1.246-14.455-.467M46.345 95.25c-1.073 1.734-9.26 45.075-8.689 46 .254.412 2.902.75 5.884.75 4.813 0 5.476-.253 5.905-2.25 1.386-6.462 3.526-18.679 3.81-21.75.297-3.216.864-2.381 6.999 10.301l6.676 13.801 5.77-.301 5.769-.301 4.322-22.383c2.376-12.31 4.085-22.998 3.796-23.75-.688-1.794-10.451-1.897-11.117-.117-.258.688-1.489 6.762-2.737 13.499l-2.268 12.25-6.728-13.5L57.009 94h-4.945c-2.878 0-5.269.523-5.719 1.25m49.936 0c-1.213 1.575-9.382 44.777-8.681 45.912.285.461 8.156.838 17.49.838 18.405 0 17.673.242 18.145-6l.265-3.5-11.148-.282c-12.177-.308-11.31.259-9.893-6.468l.579-2.75h9.506c9.283 0 9.528-.06 10.481-2.565.536-1.411.975-3.661.975-5 0-2.409-.101-2.435-9.5-2.435-10.323 0-10.279.031-8.608-6 .673-2.43.999-2.514 11.616-3l10.923-.5.913-3.194c1.764-6.169 1.412-6.306-16.19-6.306-11.547 0-16.173.343-16.873 1.25m41 0c-1.467 1.903-9.342 45.089-8.395 46.036.456.456 3.251.69 6.213.521l5.384-.307 1.239-7c2.234-12.621 1.228-11.5 10.316-11.5 7.77 0 7.986.065 7.527 2.25-3.639 17.314-3.736 16.75 2.876 16.75 2.993 0 5.725-.46 6.072-1.022.348-.562 2.554-10.915 4.904-23.006 3.403-17.513 4.014-22.199 3.005-23.037-.697-.578-3.431-.912-6.076-.743l-4.81.308-1.162 5.5c-.639 3.025-1.455 7.188-1.813 9.25l-.652 3.75h-7.954c-4.375 0-7.955-.175-7.955-.39 0-.214.695-4.05 1.543-8.525.849-4.475 1.273-8.574.941-9.11-.879-1.423-10.068-1.197-11.203.275M5.064 172.211c-1.636 2.866-2.737 5.45-2.445 5.742.292.291.97-.253 1.506-1.211C5.336 174.578 10 174.386 10 176.5c0 .825.39 1.5.866 1.5.481 0 .5-1.89.043-4.25-.452-2.338-.841-4.812-.865-5.5-.093-2.653-2.126-1.036-4.98 3.961m16.592-4.461c-.254.412-.781 2.887-1.172 5.5l-.711 4.75 4.363-.168c4.36-.168 4.361-.169.614-.56-2.062-.216-3.743-.703-3.735-1.082.041-1.836 1.822-3.066 4.994-3.449l3.491-.421-3.75-.16c-2.062-.088-3.743-.498-3.735-.91.039-1.894 1.785-3.121 4.994-3.509 3.372-.407 3.348-.426-.7-.581-2.305-.088-4.399.178-4.653.59m11.725.699c-.712 1.856 1.017 4.225 3.709 5.08 1.051.333 1.91 1.04 1.91 1.57 0 1.633-3.163 2.28-5.132 1.05-1.079-.673-1.868-.755-1.868-.193 0 1.873 3.861 3.189 6 2.044 2.903-1.554 2.442-4.241-1.071-6.241-3.136-1.784-3.173-3.759-.07-3.759.958 0 2.337.563 3.066 1.25 1.069 1.009 1.238.961.873-.25-.642-2.129-6.64-2.575-7.417-.551m12.274.38c-2.798 3.091-2.005 8.136 1.48 9.419 1.865.686 5.88-1.761 5.835-3.555-.017-.656-.489-.406-1.05.557-1.432 2.459-5.622 2.264-6.436-.299-.844-2.662 1.956-6.951 4.539-6.951 1.087 0 1.977.45 1.977 1s.505 1 1.122 1c.776 0 .738-.464-.122-1.5-1.701-2.049-5.341-1.886-7.345.329m12.916-.258c-.864.865-1.571 3.129-1.571 5.033 0 2.674.511 3.65 2.25 4.297 2.647.984 4.767.419 6.5-1.732 1.587-1.97 1.615-6.404.05-7.969-1.683-1.683-5.364-1.494-7.229.371m13.085-.821c-.254.412-.781 2.887-1.172 5.5l-.711 4.75 3.863-.16c3.76-.156 3.775-.171.568-.567-2.514-.31-3.184-.806-2.825-2.09 1.689-6.028 1.836-9.965.277-7.433m9.965 1c-.283.963-.764 3.55-1.069 5.75-.506 3.646-.459 3.757.53 1.25.85-2.155 1.739-2.75 4.11-2.75 2.727 0 2.963.246 2.397 2.5-.345 1.375-.244 2.5.225 2.5.468 0 1.3-2.475 1.848-5.5.549-3.025.655-5.5.237-5.5-.418 0-.904 1.012-1.079 2.25-.251 1.762-.97 2.25-3.32 2.25-2.537 0-2.952-.347-2.687-2.25.37-2.661-.456-3.007-1.192-.5m13.069 3.372c-1.545 2.801-2.568 5.333-2.273 5.628.295.295.82-.203 1.166-1.107.835-2.174 5.024-2.104 6.433.107.888 1.394 1.002.936.56-2.25-.305-2.2-.559-4.787-.565-5.75-.021-3.298-2.512-1.72-5.321 3.372m16.924-4.015c-1.401 4.509-2.293 9.893-1.64 9.893.807 0 3.115-10.224 2.459-10.893-.212-.216-.581.234-.819 1m4.448 4.039c-.607 2.83-.891 5.358-.631 5.618.259.26.756-.819 1.104-2.396 1.279-5.803 1.639-5.968 3.533-1.618 1.017 2.338 2.268 4.25 2.78 4.25.511 0 1.228-1.687 1.594-3.75.366-2.062.896-4.537 1.179-5.5.282-.963.033-1.75-.554-1.75-.587 0-1.099 1.012-1.137 2.25-.039 1.238-.434 3.15-.879 4.25-.704 1.741-1.033 1.449-2.539-2.25-.951-2.338-2.093-4.25-2.538-4.25-.444 0-1.305 2.316-1.912 5.146m14.188-4.457c1.969.515 2.179 2.328.82 7.068-.574 2-.574 3.243 0 3.243.511 0 .933-.562.936-1.25.017-4.002 2.212-8.649 4.273-9.048 1.221-.236-.029-.439-2.779-.45-2.75-.011-4.213.186-3.25.437m10.309.561c-.208.688-.821 3.162-1.362 5.5l-.984 4.25 4.643-.168c4.448-.161 4.483-.185.833-.564-5.314-.552-4.756-3.526.821-4.376l3.99-.608-3.75-.142c-2.062-.078-3.743-.48-3.735-.892.039-1.894 1.785-3.121 4.994-3.509 3.304-.398 3.261-.43-.79-.581-2.677-.1-4.423.309-4.66 1.09m11.071 2.663c-.344 2.151-.9 4.626-1.235 5.5-.504 1.313.143 1.559 3.748 1.427 3.679-.135 3.851-.223 1.107-.563-3.505-.435-3.651-.844-2.331-6.527.479-2.062.525-3.75.103-3.75-.421 0-1.048 1.761-1.392 3.913m11.068-3.23c-.772 1.253-1.996 10.317-1.394 10.317.68 0 2.876-10.153 2.317-10.712-.231-.232-.647-.054-.923.395m6.001 1.097c-2.555 2.823-2.237 8.084.551 9.122 2.972 1.107 5.892-.053 6.884-2.736.703-1.899.467-2.152-1.916-2.05-1.794.077-2.104.275-.913.584 2.6.674 1.512 2.744-1.638 3.117-3.074.364-4.216-1.494-3.26-5.304.758-3.02 4.863-4.361 7.269-2.375 1.409 1.164 1.578 1.144 1.16-.138-.748-2.292-6.13-2.437-8.137-.22m12.957-1.03c-.254.412-.781 2.887-1.172 5.5l-.711 4.75 4.363-.168c4.36-.168 4.361-.169.614-.56-2.062-.216-3.743-.703-3.735-1.082.041-1.836 1.822-3.066 4.994-3.449l3.491-.421-3.75-.16c-2.062-.088-3.743-.498-3.735-.91.039-1.894 1.785-3.121 4.994-3.509 3.372-.407 3.348-.426-.7-.581-2.305-.088-4.399.178-4.653.59m12.006.25c-1.398 4.363-2.355 10-1.698 10 .414 0 1.2-1.912 1.748-4.25l.997-4.25 1.895 4.239c1.043 2.331 2.333 4.098 2.867 3.926 1.145-.368 2.761-7.435 2.203-9.637-.213-.84-.734.384-1.158 2.722-.849 4.677-1.992 5.475-2.864 2-.311-1.238-1.228-3.15-2.037-4.25-1.203-1.635-1.56-1.726-1.953-.5m13.15-.286c2.354.449 2.441 1.806.546 8.536-.271.963-.055 1.75.481 1.75.535 0 1.279-2.224 1.653-4.942.549-3.991 1.096-5.023 2.844-5.364 1.19-.232-.086-.422-2.836-.422s-3.959.199-2.688.442m9.746 3.036c-.366 2.063-.896 4.537-1.179 5.5-.443 1.51.146 1.727 4.304 1.582 4.348-.152 4.452-.206 1.067-.56-2.91-.305-3.75-.827-3.75-2.332 0-1.547.761-1.972 3.75-2.1 3.692-.158 3.7-.166.5-.563-2.369-.294-3.25-.913-3.25-2.28 0-1.432.888-1.969 3.75-2.269l3.75-.392-4.139-.168c-4.038-.164-4.155-.077-4.803 3.582m-157.586-.698c-1.818 3.397-.834 6.406 2.211 6.758 3.205.37 5.311-2.706 4.383-6.403-.776-3.091-5.008-3.319-6.594-.355m-51.937.882C5.653 173.518 5.726 174 7.5 174c.933 0 1.5-.944 1.5-2.5 0-3.001-.573-3.166-1.965-.566m90 0c-1.382 2.584-1.309 3.066.465 3.066.933 0 1.5-.944 1.5-2.5 0-3.001-.573-3.166-1.965-.566" fill="#fff" fill-rule="evenodd"/></svg>